<?xml version="1.0" encoding="UTF-8"?>
<svg id="Calque_2" data-name="Calque 2" xmlns="http://www.w3.org/2000/svg" viewBox="0 0 116.64 29.7">
  <defs>
    <style>
      .cls-1 {
        fill: #1b1628;
      }

      .cls-2 {
        fill: #ff333d;
      }

      .cls-3 {
        fill: #ff8f1f;
      }

      .cls-4 {
        fill: #070d23;
      }
    </style>
  </defs>
  <g id="Calque_2-2" data-name="Calque 2">
    <g id="Calque_2-2" data-name="Calque 2-2">
      <g>
        <path class="cls-4" d="M44.02,18.16c-.84,.84-1.87,1.26-3.1,1.26s-2.26-.42-3.1-1.26-1.27-1.88-1.27-3.1,.43-2.24,1.27-3.08c.85-.85,1.88-1.27,3.1-1.27s2.26,.43,3.1,1.27c.85,.85,1.27,1.87,1.27,3.08s-.43,2.26-1.27,3.1Zm-5-3.1c0,.57,.18,1.04,.54,1.4,.36,.36,.81,.54,1.35,.54s.99-.18,1.35-.54c.36-.36,.54-.83,.54-1.4s-.18-1.04-.54-1.4c-.36-.36-.81-.54-1.35-.54s-.99,.18-1.35,.54c-.36,.36-.54,.83-.54,1.4Z"/>
        <path class="cls-4" d="M52.02,15.44v-4.5h2.48v8.25h-2.48v-.77c-.49,.67-1.28,1.01-2.35,1.01-.88,0-1.62-.3-2.21-.91-.58-.62-.88-1.45-.88-2.51v-5.06h2.47v4.7c0,.48,.13,.85,.39,1.11s.61,.39,1.04,.39c.48,0,.86-.15,1.13-.43s.4-.71,.4-1.26Z"/>
        <path class="cls-4" d="M61.15,10.95v2.37h-1.7v2.92c0,.32,.12,.53,.38,.62s.69,.12,1.32,.09v2.24c-1.56,.16-2.65,.02-3.27-.44-.61-.48-.91-1.3-.91-2.51v-2.92h-1.32v-2.37h1.32v-1.57l2.47-.74v2.31h1.71Z"/>
        <path class="cls-4" d="M64.81,13.35c0,.14,.11,.27,.34,.37,.23,.11,.59,.22,1.09,.35,1.76,.39,2.63,1.26,2.63,2.64,0,.89-.33,1.57-.99,2.03-.67,.45-1.48,.67-2.44,.67-1.74,0-2.92-.66-3.54-1.96l2.14-1.22c.22,.65,.69,.98,1.4,.98,.59,0,.89-.17,.89-.51,0-.24-.48-.48-1.44-.72-.35-.1-.66-.2-.91-.3-.25-.11-.53-.25-.81-.44-.3-.19-.52-.44-.66-.75-.16-.31-.23-.66-.23-1.06,0-.85,.3-1.51,.93-1.99,.62-.48,1.39-.71,2.31-.71,1.44,0,2.51,.59,3.22,1.76l-2.11,1.14c-.26-.48-.63-.72-1.11-.72s-.69,.16-.69,.46l-.02-.02Z"/>
        <path class="cls-4" d="M77.07,18.16c-.84,.84-1.87,1.26-3.1,1.26s-2.26-.42-3.1-1.26c-.85-.85-1.27-1.88-1.27-3.1s.43-2.24,1.27-3.08c.85-.85,1.88-1.27,3.1-1.27s2.26,.43,3.1,1.27c.85,.85,1.27,1.87,1.27,3.08s-.43,2.26-1.27,3.1Zm-5-3.1c0,.57,.18,1.04,.54,1.4,.36,.36,.81,.54,1.35,.54s.99-.18,1.35-.54,.54-.83,.54-1.4-.18-1.04-.54-1.4c-.36-.36-.81-.54-1.35-.54s-.99,.18-1.35,.54-.54,.83-.54,1.4Z"/>
        <path class="cls-4" d="M85.07,15.44v-4.5h2.47v8.25h-2.47v-.77c-.49,.67-1.28,1.01-2.35,1.01-.88,0-1.62-.3-2.21-.91-.58-.62-.88-1.45-.88-2.51v-5.06h2.48v4.7c0,.48,.13,.85,.39,1.11s.61,.39,1.04,.39c.48,0,.86-.15,1.13-.43,.27-.29,.4-.71,.4-1.26h0Z"/>
        <path class="cls-4" d="M91.83,10.95v1.47c.16-.52,.46-.92,.92-1.21,.46-.29,.98-.43,1.56-.43v2.81c-.62-.1-1.18,0-1.7,.31-.52,.3-.77,.82-.77,1.57v3.72h-2.47V10.95h2.46Z"/>
        <path class="cls-4" d="M99.17,19.42c-1.26,0-2.3-.42-3.13-1.26-.83-.84-1.24-1.87-1.24-3.1s.41-2.26,1.24-3.1c.84-.84,1.88-1.26,3.13-1.26,.78,0,1.51,.19,2.17,.57,.67,.39,1.19,.89,1.55,1.53l-2.16,1.26c-.3-.62-.83-.93-1.6-.93-.54,0-.98,.18-1.34,.53-.35,.36-.53,.81-.53,1.38s.17,1.02,.53,1.38,.8,.53,1.34,.53c.78,0,1.31-.3,1.6-.93l2.16,1.24c-.36,.66-.88,1.18-1.54,1.56s-1.39,.57-2.18,.57v.02Z"/>
        <path class="cls-2" d="M106.16,9.79c-.29,.29-.63,.43-1.04,.43s-.75-.14-1.06-.43c-.29-.3-.43-.65-.43-1.06s.14-.75,.43-1.04c.3-.3,.65-.44,1.06-.44s.75,.15,1.04,.44c.3,.29,.44,.63,.44,1.04s-.15,.75-.44,1.06Z"/>
        <rect class="cls-4" x="103.88" y="10.95" width="2.48" height="8.25"/>
        <path class="cls-4" d="M114.16,11.72v-.77h2.48v8.25h-2.48v-.77c-.57,.67-1.39,1.01-2.45,1.01s-2.02-.42-2.79-1.26c-.77-.84-1.16-1.87-1.16-3.1s.39-2.25,1.16-3.08c.78-.85,1.71-1.27,2.79-1.27s1.89,.34,2.45,1.01h0Zm-3.92,3.34c0,.62,.18,1.11,.54,1.47s.84,.54,1.42,.54,1.06-.18,1.42-.54,.54-.85,.54-1.47-.18-1.11-.54-1.47-.84-.54-1.42-.54-1.06,.18-1.42,.54-.54,.85-.54,1.47Z"/>
        <path class="cls-3" d="M27.32,6.76l-1.31,.88c-.2,.13-.31,.3-.3,.46,0,.14,.1,.27,.27,.37,.09,.06,.92,.56,1.2,.97s.36,.91,.25,1.4-.42,.92-.85,1.21c-.89,.6-2.08,.41-2.65-.43-.28-.41-.43-1.37-.44-1.48-.03-.2-.11-.34-.24-.39-.14-.07-.34-.02-.54,.11l-.82,.55c2.38,3.77,1.34,8.8-2.4,11.31-1.84,1.23-4.04,1.68-6.22,1.26-2.09-.41-3.91-1.58-5.15-3.31h0l-.14-.2c-.25-.38-.47-.77-.66-1.17-.92-2.02-.99-4.27-.22-6.34,1.58-4.21,6.23-6.38,10.45-4.94l.34-.93c.15-.38,.41-.63,.72-.7,.3-.07,.61,.05,.86,.31,.19,.19,.74,.71,1.04,.83,.7,.26,1.5-.15,1.79-.91,.14-.38,.14-.77,0-1.13-.14-.34-.41-.61-.75-.74-.31-.11-1.07-.08-1.33-.07-.37,.03-.67-.09-.86-.33-.2-.25-.23-.62-.08-1l.56-1.48C12.23-1.85,3.8,2.06,.95,9.65c-1.39,3.72-1.26,7.75,.39,11.36,1.62,3.54,4.49,6.27,8.11,7.68l.21,.06c.77,.29,1.55,.51,2.34,.66,.25,.05,.52,.1,.77,.13,3.63,.53,7.32-.32,10.37-2.37,6.74-4.52,8.58-13.64,4.18-20.41h0Z"/>
        <circle class="cls-2" cx="14.85" cy="14.85" r="3.32"/>
        <g>
          <path class="cls-1" d="M49.38,24.45c.07,.04,.11,.1,.13,.17,.02,.07,0,.15-.06,.22-.04,.05-.09,.08-.15,.09-.06,0-.12,0-.18-.03-.14-.08-.3-.16-.46-.21s-.34-.07-.52-.07c-.25,0-.48,.04-.7,.13-.21,.08-.39,.21-.55,.37s-.28,.35-.36,.57-.13,.46-.13,.72c0,.29,.05,.54,.14,.76,.09,.22,.21,.41,.37,.57,.16,.16,.34,.28,.55,.36,.21,.08,.43,.12,.68,.12,.18,0,.34-.02,.51-.07s.32-.11,.46-.21c.06-.03,.12-.04,.18-.03,.07,0,.11,.04,.15,.09,.06,.07,.07,.14,.06,.21s-.06,.13-.12,.17c-.11,.07-.23,.12-.37,.17s-.28,.09-.43,.12-.3,.05-.44,.05c-.31,0-.6-.06-.88-.16s-.52-.26-.73-.46-.38-.44-.5-.73-.18-.61-.18-.97c0-.33,.06-.64,.17-.92s.28-.53,.48-.73,.45-.37,.72-.48c.28-.11,.58-.17,.91-.17,.22,0,.44,.03,.65,.09,.21,.06,.4,.14,.58,.25v-.02Z"/>
          <path class="cls-1" d="M52.7,25.33c.07,0,.14,.02,.19,.07,.05,.05,.07,.11,.07,.19v1.76c0,.43-.12,.77-.36,1.01-.25,.24-.58,.36-1.02,.36s-.76-.12-1.01-.36c-.25-.24-.36-.57-.36-1.01v-1.76c0-.07,.02-.14,.07-.19s.11-.07,.18-.07,.14,.02,.19,.07,.07,.11,.07,.19v1.76c0,.3,.07,.52,.23,.66,.15,.15,.36,.23,.63,.23s.48-.07,.64-.23c.15-.15,.23-.37,.23-.66v-1.76c0-.07,.02-.14,.07-.19,.05-.05,.11-.07,.19-.07h-.02Z"/>
          <path class="cls-1" d="M53.71,28.14c-.03-.06-.05-.11-.05-.18s.04-.11,.11-.16c.05-.03,.1-.04,.16-.04s.11,.03,.16,.08c.12,.14,.25,.25,.41,.34s.34,.12,.57,.12c.1,0,.21-.02,.3-.05,.11-.03,.2-.08,.26-.16,.07-.07,.11-.17,.11-.3s-.03-.21-.11-.29-.17-.13-.29-.17c-.11-.05-.25-.08-.38-.12-.14-.04-.28-.08-.42-.13-.14-.05-.26-.11-.37-.18s-.2-.17-.26-.29-.1-.25-.1-.43c0-.2,.05-.36,.16-.5,.11-.14,.25-.25,.43-.33,.18-.07,.37-.11,.59-.11,.12,0,.25,.02,.38,.04,.13,.02,.26,.07,.39,.14s.24,.16,.33,.27c.04,.04,.06,.1,.07,.16s-.02,.12-.08,.17c-.05,.03-.1,.05-.16,.05s-.11-.02-.15-.06c-.1-.11-.21-.2-.34-.25s-.29-.09-.45-.09c-.1,0-.2,.02-.3,.05-.1,.03-.18,.08-.25,.15s-.1,.16-.1,.29c0,.11,.04,.21,.11,.29s.17,.13,.3,.18c.12,.04,.26,.09,.41,.13,.14,.03,.27,.07,.39,.12s.24,.11,.34,.18,.19,.16,.25,.28,.09,.25,.09,.43c0,.2-.06,.37-.16,.52-.11,.15-.26,.25-.44,.33s-.38,.11-.59,.11c-.24,0-.47-.04-.71-.13-.23-.09-.43-.24-.6-.46h0Z"/>
          <path class="cls-1" d="M56.84,25.35h1.52c.07,0,.12,.02,.17,.07s.07,.11,.07,.17-.02,.12-.07,.16c-.05,.04-.1,.07-.17,.07h-1.52c-.07,0-.12-.02-.17-.07s-.07-.11-.07-.16c0-.07,.02-.12,.07-.17,.05-.04,.11-.07,.17-.07Zm.68-.88c.07,0,.13,.02,.18,.07s.07,.11,.07,.19v3.11c0,.11,.02,.18,.05,.23,.03,.05,.07,.09,.12,.11,.05,.02,.1,.03,.15,.03,.04,0,.08,0,.11-.02,.03-.02,.07-.02,.11-.02s.08,.02,.12,.06,.06,.09,.06,.16c0,.07-.05,.14-.14,.2-.09,.06-.19,.08-.3,.08-.06,0-.13,0-.22-.02-.09,0-.17-.03-.26-.08-.08-.05-.16-.12-.21-.24-.06-.11-.09-.26-.09-.46v-3.13c0-.07,.02-.14,.07-.19s.11-.07,.19-.07h-.02Z"/>
          <path class="cls-1" d="M62.45,26.99c0,.34-.07,.63-.22,.89s-.34,.47-.6,.62c-.25,.15-.53,.23-.85,.23s-.6-.07-.85-.23c-.25-.15-.45-.36-.61-.62-.15-.26-.22-.56-.22-.89s.07-.63,.22-.89,.35-.47,.61-.62c.25-.15,.54-.23,.85-.23s.6,.07,.85,.23c.25,.15,.45,.36,.6,.62s.22,.56,.22,.89Zm-.53,0c0-.25-.05-.47-.15-.66s-.24-.34-.41-.44c-.17-.11-.37-.16-.58-.16s-.42,.06-.59,.16c-.17,.11-.31,.25-.42,.44-.11,.19-.16,.4-.16,.66s.05,.46,.16,.65c.11,.19,.24,.34,.42,.45,.17,.11,.37,.16,.59,.16s.41-.06,.58-.16,.31-.26,.41-.45,.15-.41,.15-.65Z"/>
          <path class="cls-1" d="M64.81,25.29c.3,0,.53,.07,.71,.22s.3,.36,.36,.63h-.1l.04-.11c.05-.12,.14-.24,.26-.34,.12-.11,.27-.21,.43-.28s.34-.11,.51-.11c.29,0,.51,.06,.67,.18s.28,.29,.35,.49c.07,.21,.11,.43,.11,.69v1.76c0,.07-.02,.13-.07,.19-.05,.05-.11,.07-.19,.07s-.13-.02-.18-.07-.07-.11-.07-.19v-1.75c0-.16-.02-.31-.07-.45-.05-.14-.12-.25-.24-.33s-.26-.12-.45-.12c-.17,0-.33,.04-.48,.12s-.26,.19-.34,.33c-.08,.13-.13,.29-.13,.45v1.75c0,.07-.02,.13-.07,.19-.05,.05-.11,.07-.19,.07s-.14-.02-.19-.07c-.05-.05-.07-.11-.07-.19v-1.77c0-.16-.02-.3-.07-.43-.05-.13-.12-.24-.23-.32-.11-.08-.25-.12-.43-.12s-.33,.04-.47,.12-.25,.19-.34,.32c-.08,.13-.13,.28-.13,.43v1.77c0,.07-.02,.13-.07,.19-.05,.05-.11,.07-.18,.07s-.13-.02-.18-.07-.07-.11-.07-.19v-2.81c0-.07,.02-.14,.07-.19s.11-.07,.18-.07,.14,.02,.19,.07c.05,.05,.07,.11,.07,.19v.48l-.14,.16c.02-.11,.06-.22,.13-.34,.07-.11,.16-.21,.27-.31,.11-.1,.24-.17,.38-.23,.14-.06,.29-.08,.43-.08h0Z"/>
          <path class="cls-1" d="M70.67,28.73c-.34,0-.65-.07-.91-.22s-.46-.34-.6-.61c-.14-.25-.21-.55-.21-.89,0-.38,.07-.7,.22-.96,.15-.26,.34-.47,.58-.61s.49-.21,.75-.21c.2,0,.39,.03,.57,.11,.19,.07,.34,.18,.49,.32s.25,.31,.34,.5c.08,.2,.13,.41,.14,.66,0,.07-.02,.12-.07,.17-.05,.04-.11,.07-.18,.07h-2.55l-.11-.44h2.48l-.11,.09v-.14c-.02-.18-.07-.33-.17-.45s-.22-.22-.37-.3c-.15-.07-.3-.11-.45-.11-.13,0-.25,.02-.39,.07-.12,.05-.24,.12-.34,.22s-.18,.23-.25,.39-.09,.35-.09,.57c0,.25,.05,.47,.15,.66s.24,.34,.43,.45c.18,.11,.39,.16,.63,.16,.15,0,.28-.02,.39-.06,.11-.04,.21-.09,.29-.15s.15-.11,.21-.18c.06-.04,.11-.06,.16-.06,.06,0,.11,.02,.16,.07,.04,.04,.07,.1,.07,.16,0,.07-.03,.14-.11,.2-.12,.13-.29,.25-.49,.34s-.43,.15-.66,.15v.02Z"/>
          <path class="cls-1" d="M73.08,28.67c-.07,0-.13-.02-.18-.07s-.07-.11-.07-.19v-2.81c0-.07,.02-.14,.07-.19s.11-.07,.18-.07,.14,.02,.19,.07c.05,.05,.07,.11,.07,.19v.85l-.07-.14c.02-.13,.07-.26,.14-.39,.07-.12,.15-.24,.25-.34,.11-.1,.22-.18,.35-.24,.13-.06,.28-.09,.43-.09,.1,0,.18,.02,.26,.07,.08,.05,.12,.11,.12,.19,0,.09-.02,.16-.07,.21-.05,.04-.1,.07-.16,.07-.06,0-.11-.02-.16-.04s-.11-.04-.2-.04c-.11,0-.21,.03-.32,.09s-.21,.14-.29,.25c-.09,.11-.16,.23-.21,.36-.06,.14-.08,.28-.08,.43v1.57c0,.07-.02,.13-.07,.19-.05,.05-.11,.07-.18,.07v.02Z"/>
          <path class="cls-1" d="M81.35,26.41c0,.33-.06,.64-.16,.92s-.26,.53-.45,.74c-.2,.21-.43,.38-.69,.49s-.56,.17-.88,.17-.61-.06-.87-.17-.49-.28-.69-.49-.34-.46-.45-.74c-.11-.28-.16-.59-.16-.92s.05-.64,.16-.92c.11-.28,.25-.53,.45-.74s.43-.38,.69-.49c.26-.11,.56-.17,.87-.17s.61,.06,.88,.17c.26,.11,.49,.28,.69,.49s.34,.46,.45,.74c.11,.28,.16,.59,.16,.92Zm-.56,0c0-.34-.07-.66-.21-.94-.14-.27-.33-.48-.57-.64-.25-.16-.53-.23-.85-.23s-.59,.07-.84,.23c-.25,.16-.43,.37-.57,.64s-.21,.58-.21,.94,.07,.66,.21,.94c.14,.27,.33,.48,.57,.64,.25,.16,.53,.23,.84,.23s.6-.07,.85-.23c.25-.16,.43-.37,.57-.64,.14-.27,.21-.58,.21-.94Z"/>
          <path class="cls-1" d="M83.76,25.25c.3,0,.56,.07,.79,.22s.42,.35,.55,.61c.14,.25,.21,.56,.21,.89s-.07,.64-.21,.9c-.13,.26-.32,.47-.55,.62s-.49,.23-.78,.23c-.16,0-.31-.02-.45-.07-.14-.05-.27-.11-.38-.2-.11-.08-.21-.17-.29-.27-.07-.1-.13-.2-.16-.3l.14-.08v.64c0,.07-.02,.14-.07,.19s-.11,.07-.19,.07c-.07,0-.13-.02-.18-.07s-.07-.11-.07-.19v-4.27c0-.07,.02-.13,.07-.19,.05-.05,.11-.07,.18-.07s.14,.02,.19,.07c.05,.05,.07,.11,.07,.19v1.99l-.1-.05c.03-.11,.08-.21,.16-.31,.07-.1,.16-.19,.28-.27s.23-.14,.37-.19,.28-.07,.43-.07h0Zm-.06,.47c-.21,0-.4,.06-.57,.16-.16,.11-.3,.25-.39,.44s-.14,.4-.14,.64,.05,.46,.14,.65c.09,.2,.22,.34,.39,.46,.16,.11,.35,.16,.57,.16s.4-.06,.57-.16c.16-.11,.3-.26,.39-.46,.1-.2,.14-.41,.14-.65s-.05-.45-.14-.64c-.1-.19-.22-.34-.39-.44-.16-.11-.35-.16-.57-.16Z"/>
          <path class="cls-1" d="M85.88,28.14c-.03-.06-.05-.11-.05-.18s.04-.11,.11-.16c.05-.03,.1-.04,.16-.04s.11,.03,.16,.08c.12,.14,.25,.25,.41,.34s.34,.12,.57,.12c.1,0,.2-.02,.3-.05s.2-.08,.26-.16c.07-.07,.11-.17,.11-.3s-.03-.21-.11-.29-.17-.13-.29-.17c-.11-.05-.25-.08-.38-.12-.14-.04-.28-.08-.42-.13-.14-.05-.26-.11-.37-.18s-.2-.17-.26-.29-.1-.25-.1-.43c0-.2,.05-.36,.16-.5,.11-.14,.25-.25,.42-.33,.18-.07,.37-.11,.59-.11,.12,0,.25,.02,.38,.04,.13,.02,.26,.07,.39,.14s.24,.16,.33,.27c.04,.04,.06,.1,.07,.16,0,.07-.02,.12-.08,.17-.05,.03-.1,.05-.16,.05s-.11-.02-.15-.06c-.1-.11-.21-.2-.34-.25-.13-.06-.29-.09-.45-.09-.1,0-.2,.02-.3,.05s-.18,.08-.25,.15-.1,.16-.1,.29c0,.11,.04,.21,.11,.29s.17,.13,.3,.18c.12,.04,.26,.09,.41,.13,.14,.03,.27,.07,.39,.12s.24,.11,.34,.18,.19,.16,.25,.28,.09,.25,.09,.43c0,.2-.06,.37-.16,.52-.11,.15-.26,.25-.44,.33s-.38,.11-.59,.11c-.24,0-.47-.04-.71-.13s-.43-.24-.6-.46h0Z"/>
          <path class="cls-1" d="M90.67,28.73c-.34,0-.65-.07-.91-.22s-.46-.34-.6-.61c-.14-.25-.21-.55-.21-.89,0-.38,.07-.7,.22-.96,.15-.26,.34-.47,.58-.61s.49-.21,.75-.21c.2,0,.39,.03,.57,.11,.19,.07,.34,.18,.49,.32s.25,.31,.34,.5c.08,.2,.13,.41,.14,.66,0,.07-.02,.12-.07,.17-.05,.04-.11,.07-.18,.07h-2.55l-.11-.44h2.48l-.11,.09v-.14c-.02-.18-.07-.33-.17-.45s-.22-.22-.37-.3c-.15-.07-.3-.11-.45-.11-.13,0-.25,.02-.39,.07-.12,.05-.24,.12-.34,.22s-.18,.23-.25,.39-.09,.35-.09,.57c0,.25,.05,.47,.15,.66s.24,.34,.43,.45c.18,.11,.39,.16,.63,.16,.15,0,.28-.02,.39-.06,.11-.04,.21-.09,.29-.15s.15-.11,.21-.18c.06-.04,.11-.06,.16-.06,.06,0,.11,.02,.16,.07,.04,.04,.07,.1,.07,.16,0,.07-.03,.14-.11,.2-.12,.13-.29,.25-.49,.34s-.43,.15-.66,.15v.02Z"/>
          <path class="cls-1" d="M92.64,28.14c-.03-.06-.05-.11-.05-.18s.04-.11,.11-.16c.05-.03,.1-.04,.16-.04s.11,.03,.16,.08c.12,.14,.25,.25,.41,.34s.34,.12,.57,.12c.1,0,.21-.02,.3-.05,.11-.03,.2-.08,.26-.16,.07-.07,.11-.17,.11-.3s-.03-.21-.11-.29-.17-.13-.29-.17c-.11-.05-.25-.08-.38-.12-.14-.04-.28-.08-.42-.13-.14-.05-.26-.11-.37-.18s-.2-.17-.26-.29-.1-.25-.1-.43c0-.2,.05-.36,.16-.5,.11-.14,.25-.25,.43-.33,.18-.07,.37-.11,.59-.11,.12,0,.25,.02,.38,.04s.26,.07,.39,.14,.24,.16,.33,.27c.04,.04,.06,.1,.07,.16,0,.07-.02,.12-.08,.17-.05,.03-.1,.05-.16,.05s-.11-.02-.15-.06c-.1-.11-.21-.2-.34-.25-.14-.06-.29-.09-.45-.09-.1,0-.2,.02-.3,.05-.1,.03-.18,.08-.25,.15s-.1,.16-.1,.29c0,.11,.04,.21,.11,.29s.17,.13,.3,.18c.12,.04,.26,.09,.41,.13,.14,.03,.27,.07,.39,.12s.24,.11,.34,.18,.19,.16,.25,.28,.09,.25,.09,.43c0,.2-.06,.37-.16,.52-.11,.15-.26,.25-.44,.33s-.38,.11-.59,.11c-.24,0-.47-.04-.71-.13-.23-.09-.43-.24-.6-.46h0Z"/>
          <path class="cls-1" d="M95.69,28.14c-.03-.06-.05-.11-.05-.18s.04-.11,.11-.16c.05-.03,.1-.04,.16-.04s.11,.03,.16,.08c.12,.14,.25,.25,.41,.34s.34,.12,.57,.12c.1,0,.21-.02,.3-.05,.11-.03,.2-.08,.26-.16,.07-.07,.11-.17,.11-.3s-.03-.21-.11-.29-.17-.13-.29-.17c-.11-.05-.25-.08-.38-.12-.14-.04-.28-.08-.42-.13-.14-.05-.26-.11-.37-.18s-.2-.17-.26-.29-.1-.25-.1-.43c0-.2,.05-.36,.16-.5,.11-.14,.25-.25,.43-.33,.18-.07,.37-.11,.59-.11,.12,0,.25,.02,.38,.04s.26,.07,.39,.14,.24,.16,.33,.27c.04,.04,.06,.1,.07,.16,0,.07-.02,.12-.08,.17-.05,.03-.1,.05-.16,.05s-.11-.02-.15-.06c-.1-.11-.21-.2-.34-.25-.14-.06-.29-.09-.45-.09-.1,0-.2,.02-.3,.05-.1,.03-.18,.08-.25,.15s-.1,.16-.1,.29c0,.11,.04,.21,.11,.29s.17,.13,.3,.18c.12,.04,.26,.09,.41,.13,.14,.03,.27,.07,.39,.12s.24,.11,.34,.18,.19,.16,.25,.28,.09,.25,.09,.43c0,.2-.06,.37-.16,.52-.11,.15-.26,.25-.44,.33s-.38,.11-.59,.11c-.24,0-.47-.04-.71-.13-.23-.09-.43-.24-.6-.46h0Z"/>
          <path class="cls-1" d="M99.18,24.85c-.11,0-.19-.02-.24-.07s-.07-.11-.07-.2v-.09c0-.09,.02-.16,.08-.2s.13-.07,.24-.07,.18,.02,.23,.07,.07,.11,.07,.2v.09c0,.09-.02,.16-.08,.2s-.13,.07-.24,.07h0Zm.26,3.55c0,.07-.02,.13-.07,.19-.05,.05-.11,.07-.18,.07-.07,0-.14-.02-.19-.07-.05-.05-.07-.11-.07-.19v-2.86c0-.07,.02-.14,.07-.19s.11-.07,.19-.07,.13,.02,.18,.07,.07,.11,.07,.19v2.86Z"/>
          <path class="cls-1" d="M103.54,26.99c0,.34-.07,.63-.22,.89s-.34,.47-.6,.62c-.25,.15-.53,.23-.85,.23s-.6-.07-.85-.23c-.25-.15-.45-.36-.61-.62-.15-.26-.22-.56-.22-.89s.07-.63,.22-.89,.35-.47,.61-.62c.25-.15,.54-.23,.85-.23s.6,.07,.85,.23c.25,.15,.45,.36,.6,.62s.22,.56,.22,.89Zm-.53,0c0-.25-.05-.47-.15-.66s-.24-.34-.41-.44c-.17-.11-.37-.16-.58-.16s-.42,.06-.59,.16c-.17,.11-.31,.25-.42,.44-.11,.19-.16,.4-.16,.66s.05,.46,.16,.65c.11,.19,.24,.34,.42,.45,.17,.11,.37,.16,.59,.16s.41-.06,.58-.16,.31-.26,.41-.45,.15-.41,.15-.65Z"/>
          <path class="cls-1" d="M105.97,25.25c.3,0,.53,.06,.69,.18s.29,.28,.36,.48,.11,.43,.11,.68v1.8c0,.07-.02,.13-.07,.19-.05,.05-.11,.07-.18,.07-.07,0-.14-.02-.19-.07s-.07-.11-.07-.19v-1.8c0-.16-.02-.31-.07-.44s-.13-.24-.25-.32c-.11-.08-.27-.12-.47-.12-.18,0-.34,.04-.5,.12-.15,.08-.27,.19-.36,.32s-.14,.28-.14,.44v1.8c0,.07-.02,.13-.07,.19-.05,.05-.11,.07-.18,.07s-.13-.02-.18-.07-.07-.11-.07-.19v-2.81c0-.07,.02-.14,.07-.19s.11-.07,.18-.07,.14,.02,.19,.07c.05,.05,.07,.11,.07,.19v.45l-.13,.14c.02-.11,.07-.22,.15-.34s.17-.21,.29-.3,.25-.16,.39-.21c.14-.06,.29-.08,.44-.08h0Z"/>
        </g>
      </g>
    </g>
  </g>
</svg>